<?xml version="1.0" encoding="utf-8"?>
<!-- Generator: Adobe Illustrator 16.0.0, SVG Export Plug-In . SVG Version: 6.00 Build 0)  -->
<!DOCTYPE svg PUBLIC "-//W3C//DTD SVG 1.1//EN" "http://www.w3.org/Graphics/SVG/1.1/DTD/svg11.dtd">
<svg version="1.1" xmlns="http://www.w3.org/2000/svg" xmlns:xlink="http://www.w3.org/1999/xlink" x="0px" y="0px" width="710px"
	 height="657.773px" viewBox="0 0 710 657.773" enable-background="new 0 0 710 657.773" xml:space="preserve">
<g id="环路">
	<polygon id="东二环_1_" opacity="0.5" fill="none" stroke="#808080" stroke-width="6" stroke-linejoin="bevel" points="
		341,238.5 463.662,238.167 465.667,301.833 468,342.5 470,360.833 483.667,368.5 485.333,400.834 488.667,418.501 480.333,440.833 
		439.333,439.167 396.333,436.833 314.333,446.834 295,447.5 296.333,412.5 296.333,373.167 309,369.5 309,360.5 309,253.5 	"/>
	<polygon id="六环_2_" opacity="0.5" fill="none" stroke="#808080" stroke-width="8" stroke-linejoin="bevel" points="-133,313 
		-121.5,329 -108,349 -94.5,372 -94.5,392 -102.5,406.5 -106.5,423 -113.75,436.833 -119.5,449 -120.5,464.5 -133,475 
		-148.5,495.833 -161.5,515.5 -168,532 -167.5,549.5 -160.5,569 -158.5,597 -161.5,623 -163,649.5 -167.5,662.5 -176,672.5 
		-185,680.5 -193,692.5 -195,713.5 -205.5,797 -207.5,833.5 -206,857.5 -197,875 -180,883.5 -111.5,888.5 -18,892.5 39.5,892.5 
		96.5,902 140,906 189.5,902 215.5,898 255.5,882 276.5,877.5 313.5,866 338.167,854 381,829 418,829 453,824 476,824 496.5,817 
		532.5,812 566.5,802 592.5,789 612,781.5 641.5,776.5 667.5,765 689,762 708,762 720.5,756 754.5,736.5 785.5,732.5 806.69,724 
		819.5,711 829.5,692.5 846.5,649.5 854.479,634.151 877.5,608 924.5,562 941,545 958,521 981.5,488.5 1000,447.5 1013.5,403 
		1018,358 1015.5,346 1011,331 1010.5,319.5 1005.5,269.5 1002,242.5 1001,220.5 1005.5,192.5 1011,170 1014.5,148.5 1012,137.5 
		1006.5,127 965.5,90 943,65 930,37 909.5,-17.5 877,-81.5 862,-101.5 847,-121.5 841,-139.5 842,-175.5 840,-236.5 829.5,-256.5 
		816,-265.5 748,-271.5 658.25,-275.5 631,-280.5 565.143,-298.481 499,-311.5 470.5,-311.5 440.5,-306.5 413.25,-303.5 380,-311.5 
		325,-322.5 272,-338.5 228.25,-350.5 204.99,-353.5 170,-353.5 82,-340.5 -18,-326.5 -43,-320.5 -60,-306.5 -74,-287.5 -84,-264.5 
		-91,-243.5 -91,-213.5 -91,-190.5 -91,-166.5 -91,-149.5 -96,-132.5 -105,-109.5 -116,-81.5 -133,-52.5 -152,-29.5 -171,-9 
		-187,15.352 -187,29.16 -187,47.5 -181,69.5 -179,85.5 -187,99 -200,109.749 -213,119.5 -213,130.663 -213,142.499 -211,155.5 
		-203.25,172.5 -196.5,194.5 -183,208.5 -175,228 -166.75,253 -162.5,273 -139,305.5 	"/>
	<polygon id="五环_2_" opacity="0.5" fill="none" stroke="#808080" stroke-width="8" stroke-linejoin="bevel" points="443,692.5 
		450.5,673 456.5,660.5 469,651 488.667,647 503,647.5 521,641.5 535.5,627 547,607.5 558.5,595 580,584.5 622.5,564.5 647,540.5 
		672.5,516 691.5,495.5 695,478.5 692,462.166 692,427.5 692,397 688.5,362 684.5,331.5 681,304 681,272.5 677.5,253 669.5,241.5 
		657.5,222.5 651.5,206 642.5,179 616.5,139.5 581,89 570,75 563.5,69 553,65.5 535.5,66 517.5,65 498,60 484,53.5 463.662,49.5 
		413.5,47.5 317,45.833 273,45.833 257.5,49.5 241.5,53.5 223,59 203,63.5 174,69.5 156,73 146,76.5 139,88 127,96.5 111.5,96.5 
		95.5,99.5 83,105.5 66.5,109.648 50,117 42.5,128 41.5,154.5 38.5,174 33,210.5 27.5,243.5 23,261 24,299.5 22,343.5 23,390 
		17,412 17,431 29,454.5 39.5,475 42.5,495.833 65.5,527.25 83,539.5 93.5,544.5 116,577.333 131.5,607.5 131.5,626.5 143,669.5 
		155,686.5 167.5,689.5 180.5,686.5 200,675 214.5,672 231,672 333.5,682.5 344,692.5 347.5,711.5 350.5,722.5 359.5,731 373.5,731 
		424,714.5 437.417,705 	"/>
	<path id="四环" opacity="0.5" fill="none" stroke="#808080" stroke-width="6" stroke-linejoin="bevel" d="M148.75,182.083
		L168.5,170l18-22l12.414-4.434H231.5l228-10.713L488.667,140L552,194.5l17,17l5.5,16l1.5,71.957L574.5,429.5l-5,38.5l-7.5,36.5
		l-18,16.25L527,535l-26,4.5L337.5,543h-147l-13.5-4l-5-9.5c0,0,1-10-1.5-13.5s-4.5-14.5-4.5-14.5l-1.5-51l-9.835-23.426
		l-7.332-27.408l1.917-106.416l-1.917-26.75l2-42.917l-0.667-29L148.75,182.083z"/>
	<polygon id="三环_1_" opacity="0.5" fill="none" stroke="#808080" stroke-width="6" stroke-linejoin="bevel" points="
		240.5,191.5 463.662,185 472.5,188.5 519,228 519,440 515.5,449.5 494,470 454,473.5 434.25,476 339.5,476 295.333,492.5 
		278.75,495.833 252.5,495.833 240.5,485 226,462.166 222,440.833 218.5,379.75 217.917,238.25 216.312,202.164 	"/>
</g>
<g id="AE">
	<polyline fill="none" stroke="#9B91B1" stroke-width="3" stroke-linecap="square" stroke-linejoin="bevel" points="468.834,257.5 
		473.667,257.5 473.667,252.167 510.333,208.49 528.063,187.597 633.102,66.896 658.399,50.634 718.667,20.5 726.333,20.167 
		748.391,13.367 772.5,11 790.333,9.167 801.333,9.167 808.333,9.167 828.264,-6.103 828.264,-15.167 826.333,-29.5 	"/>
</g>
<g id="YZ">
	<path opacity="0.5" fill="none" stroke="#D6006E" stroke-width="3" stroke-linecap="square" stroke-linejoin="bevel" d="
		M460.088,504.5c0,0,0.088,19.5,0,24s8.412,9.392,12.412,9.392s19-0.108,25.5,0s15,0,16,11.108
		c0.284,3.157-0.206,41.019,0.294,56.019S527.5,628.5,546,621.5c9.783-3.701,39-18,44-20.5s11.228,3.04,13.295,5.993
		S651.433,687,655.933,692.5s6.902,6.386,14.048,2.129S760,642,760,642l46.69-45.304"/>
</g>
<g id="FS">
	<path opacity="0.5" fill="none" stroke="#DC6016" stroke-width="3" stroke-linecap="square" stroke-linejoin="bevel" d="
		M203.333,581.834c0,0,0,6.168,0,9.334s-1.296,6.552-4.425,7.702c-1.755,0.646-29.097,9.89-52.768,17.884
		c-18.528,6.257-25.77,8.294-25.77,8.294s-28.223,6.365-40.13,8.575s-34.907,12.378-41.907,14.378s-8.07,10.1-7.333,15.499
		s6,44,6,44c0.5,6.25-4.5,8.5-9.5,8.5s-22.917,0-29.167,0s-7.403,0.447-10.237,5.113l-15.352,30.688
		c-2.911,5.531-4.078,11.531-4.078,11.531S-29.5,808-29,813s-1.982,6.802-12,7.053s-109.493,2.746-109.493,2.746"/>
</g>
<g id="DX">
	<path opacity="0.5" fill="none" stroke="#008193" stroke-width="3" stroke-linecap="square" stroke-linejoin="bevel" d="
		M339.204,535.999c-0.038,3.001-0.423,3.792-1.204,6.334c-0.553,1.799-5.341,15.496-8.475,25.308
		c-1.276,3.994-2.035,9.614-1.957,11.122L330.5,609c0.686,5.053-2.491,8.435-9,8.5c-5.381,0.054-36.036,0.36-46.5,0.465
		c-2.194,0.022-5.386,1.397-8.903,3.938c-2.272,1.641-6.867,4.959-9.834,7.103c-1.625,1.174-2.609,3.427-2.263,6.645
		s4.5,41.851,4.5,41.851l3.5,56c0,0,1.833,95.167,2,98.667S261.422,838,258,838c-5.279,0-12.567,0-15.5,0
		c-4.833,0-6.5,5.5-5.782,8.78s2.782,12.72,2.782,12.72l2,14.5l1.5,15l0.5,16l-1.5,18l-3,12.5l-0.5,17.5l0.152,5.011"/>
</g>
<g id="BT">
	<polyline opacity="0.5" fill="none" stroke="#A12830" stroke-width="3" stroke-linecap="square" stroke-linejoin="bevel" points="
		968.851,436.95 957,433 950.919,426.203 944.474,419 933.178,406.376 924.308,398.865 916.5,392.75 904.299,388.199 885,381 
		880.839,375.528 874,364.654 867.5,355.166 860.748,349.687 847,349 823,349 801.795,340.5 788,339 763.334,337.5 736.5,340.5 
		712,340.5 670,340.5 629.333,342.833 585.333,342.833 	"/>
</g>
<g id="M15">
	<path display="none" fill="none" stroke="#6A1D44" stroke-width="4" stroke-linejoin="round" stroke-dasharray="24,8" d="
		M488.667,119.5c-11.167,6.5-8.129-17.019-21.667-18S432.5,99,432.5,99l-160,5"/>
	<path opacity="0.5" fill="none" stroke="#6A1D44" stroke-width="3" stroke-linecap="square" stroke-linejoin="bevel" d="
		M968.667-238.84H953l-31.667,6.69h-24.687l-31.683,1.494l-40.297,1.489h-19h-40.334L745-222.833L730-206.5l-8.333,12.667l-5,19.333
		l-9,71l-4.333,31l-3,8.667L695-54.5l-8.666,7l-8.834,6.333l-6.5,9.333l-5.333,9.667L657,2.167l-2.333,6L650,11.833l-7,2.333
		l-7.333,1.333l-22.333,1.667l-28.584,2l-2.75,4l5.334,58.667v7.417l-3.085,4.372L576,97.5l-5.333,1.5h-8.333h-8h-5.667l-6.333,2.5
		l-8.334,8l-4,3c0,0-12.264,1.466-19,1.667S499.833,113,488.667,119.5c0,0-6.917,1.25-10.917,2.25s-6,0-6-5.75s-0.25-8.25,0-10.25
		s-3.25-3.75-7.75-5s-28.25-2.25-37-2S330.75,102,330.75,102l-54.5,1.25"/>
</g>
<g id="M14">
	<path opacity="0.5" fill="none" stroke="#CC9A8E" stroke-width="3" stroke-linecap="square" stroke-linejoin="bevel" d="
		M552,303.944c0,0,0.25-16.444,0-26.194s-6.396-10.366-6.396-16.866c0-0.686,0.263-9.071,0.212-13.689
		c-0.065-5.945,2.107-9.625,9.77-14.547l8.195-4.147c4.26-2.825,7.095-8.5,4.081-13.711l-2.736-4.539
		c-2.5-4.125-1.625-8.75,4.375-13.25c0,0,6.25-2.5,6.5-8.5s0-21.041,0-24.771s-2.25-8.229-6-10.979c0,0-26.25-22-30.5-25.75
		s-7.25-8-7.25-13c0,0-1.25-56.5-1.5-60.5c0,0,3.25-8.209,6.75-10.854s13.181-4.396,17.25-7.896"/>
	<path fill="none" stroke="#CC9A8E" stroke-width="3" stroke-linecap="square" stroke-linejoin="bevel" d="M206.25,451.38L165,454
		c0,0-24,0.734-33-1.383s-12.5-2.371-19.5,1.506s-25,10.377-31,13.377s-7,0.098-13.5-8.201S61,449.5,58,445.5s-11-6.5-19,0
		S21.5,458,16,462s-6.75,7-20.5,6.652c-6.5-0.164-11-1.152-20,6.348"/>
	<g opacity="0.5">
		<g>
			
				<line fill="none" stroke="#CC9A8E" stroke-width="3" stroke-linecap="square" stroke-linejoin="bevel" x1="206.25" y1="451.38" x2="218.192" y2="450.194"/>
			
				<path fill="none" stroke="#CC9A8E" stroke-width="3" stroke-linecap="square" stroke-linejoin="bevel" stroke-dasharray="23.8885,7.9628" d="
				M226.116,449.408l19.215-1.908c0,0,30.666-0.33,37.333,0s10.669,0,10.669,10.754c0,7.93,4,8.247,9,7.913s8.333-1.334,12-1.334
				s9-2.666,14.333-2.666s9.333,0,15-1s8.666-3.334,12.333-6.334s9.667-6.293,15-7.479s12.667-1.52,16-2.187s3-0.334,6.333,2.333
				s6.333,8.388,10.667,8.027s44.333-2.027,44.333-2.027s34.333-0.666,38-0.666s5.185,0,7.083,0
				c4.75-0.001,8.167,5.999,13.833,0.499c1.521-1.476,3.241-3.215,3.5-3.583c1.583-2.25,7.583-2.584,11.583-2.25
				c0,0,17.333-0.333,21.667,0s7-3.667,7-8.667s0-57.417,0-57.417l0.794-61.492"/>
			
				<line fill="none" stroke="#CC9A8E" stroke-width="3" stroke-linecap="square" stroke-linejoin="bevel" x1="551.845" y1="315.943" x2="552" y2="303.944"/>
		</g>
	</g>
</g>
<g id="M13">
	<path opacity="0.5" fill="none" stroke="#F5D312" stroke-width="3" stroke-linecap="square" stroke-linejoin="bevel" d="M304.5,256
		L294,212.083l-4-10.583l-1-11.442l-3-7.443L280.481,170l-4.234-18.5l-3.747-39.003V86L267,75.82L249.5,56l-15-47L213-26.5
		c0,0-6.5-20-11-31s1.5-20,11-20s103.75,0,103.75,0h14l9.75,3c0,0,161,90,170.5,95s9.224,10.813,5.53,20.023
		s-8.811,21.969-8.811,21.969l-10.922,32.281L482.5,136.5l-23,48.5l1,45l5.5,11.5l1.333,16"/>
</g>
<g id="M9">
	<path opacity="0.5" fill="none" stroke="#87D300" stroke-width="3" stroke-linecap="square" stroke-linejoin="bevel" d="
		M249.368,254.924l0.132,47.574l-8,43.502v23.166c0,0-0.136,8.912,0,13.847c0.149,5.403-1.242,9.646-8.475,13.692l-7.608,4.134
		c-5.555,2.698-6.381,6.241-10.084,7.995L198,415.501c-4.56,1.92-9.292,8.597-9.667,14.416s-1.896,41.396-1.896,41.396
		c-0.5,10.5,0.432,18.152,2.563,28.188c2.058,9.692,3.57,11.5,3.667,19.167s0.5,39.75,0.5,39.75v7.166
		c0,6.75,10.105,5.151,10.167,16.251v8.095"/>
</g>
<g id="M8">
	<path display="none" fill="none" stroke="#00997A" stroke-width="4" stroke-linejoin="round" stroke-dasharray="24,8" d="
		M385.5,237.84c0,0,0,13.16,0,16.66s2.901,4.489,3,6.667s0.167,5.167,0.417,9.167s3.083,8.493,7.583,8.493s5.999,0.088,12.666,0.034
		s9.001,6.641,9.001,15.807s0,12.667,0,12.667v10.833v8V339.5v10.647c0,0,0.167,3.186,0,8.686s-2.64,7.898-6.833,8.333
		c-4.833,0.501-4.833,0.501-4.833,0.501s-11,0.165-12.333,1.499s-0.92,10.584-0.92,10.584V395l2.419,45.833l2.882,69.826
		l2.021,67.339L401.5,609H430l5.551,31.854l2.949,16.92"/>
	<path opacity="0.5" fill="none" stroke="#00997A" stroke-width="3" stroke-linecap="square" stroke-linejoin="bevel" d="
		M418.5,301.564c0-16.064-5.5-22.738-20.667-22.738c-9.167,0-8.167-12.993-8.167-12.993c0-4-4.333-7.667-4.335-12.333
		c0,0,0.169-15.66-0.381-32.972c-0.097-3.064,2.017-6.813,1.925-9.903c-1.159-39.246-2.188-130-2.188-130
		C384.599,75.813,383.333,69.167,380,64s-10.833-10-16-12s-11-1.667-19.5-1.5s-14.667,0.5-19-1.5s-7.629-6.265-8.75-10.5
		S309,9.5,309,9.5s-25.835-50.756-27.316-54.422s-0.801-10.015,0.898-11.862S286-60.5,286-60.5s36-25.167,39.5-27.5
		s5.25-8.5,5.25-8.5s0.244-3.81,0.375-8.663c0,0-0.792-11.003-2.125-15.003s-4-9.083-10.75-8.583s-53.75,3.25-59,4.5
		s-24.5,1.5-28.25-13s-9.547-39.377-9.547-39.377"/>
</g>
<g id="M7">
	<path opacity="0.5" fill="none" stroke="#FFC66E" stroke-width="3" stroke-linecap="square" stroke-linejoin="bevel" d="
		M670.667,485.666C667.834,483.499,651,471.5,647.833,469s-11.166-2.834-14.444-2.734s-10.389-0.1-14.722-0.016
		c-3.167,0.062-13.667-0.084-17.087,0s-5.413-2.417-5.413-4.75s0-7.667,0-7.667c0-4,0.166-12.167,0.666-15.667s3.667-13,3.667-13
		c1.5-3.167,1-16.666,1-16.666s0-17.5,0-21.275s-3.167-4.892-8.331-4.794l-118.835-1.015l-69.667,3.084l-29,7L330,393.166
		c0,0-70.338-2.902-76.333-2.666c-8.5,0.335-12.018-1.83-12.018-10.497v-5.835"/>
</g>
<g id="M6">
	<path opacity="0.5" fill="none" stroke="#BB8900" stroke-width="3" stroke-linecap="square" stroke-linejoin="bevel" d="
		M150.625,281c5.875,0,20.375,0,20.375,0s223.501-2.155,230-2.174s7.875,6.674,7.875,10.174s-0.119-2.875,0,3.162
		s6.108,9.411,9.625,9.402s36.5-0.076,36.5-0.076l20.313,1.256l25.687,1.2h31.417h26.342L597,304.005L636.5,304H665l41.5,0.005
		l33-0.005l17.669-1.256L779,299.457l14.961-1.274l15.205-0.016L822,301.333l23-5.424l14.5-2.409c0,0,15.501-0.083,24.001-0.083
		c6.5,0,6.453-3.329,11.124-3.329c3.25,0,4.5,0.35,6.334,1.776l10.291,7.448c3.947,3.733,4.442,7.573,4.718,12.822
		c0.104,1.968,0.306,5.046,0.62,8.515c0.375,4.142,3.582,6.218,7.787,6.851c3.137,0.472,7.874,0.522,9.919,1.872
		c2.171,1.434,5.233,4.051,8.095,6.348s7.612,6.113,7.612,6.113l9.333,7.167l9.517,7l4.482,1.833L993.5,358
		c0,0,72.509-2.282,84.505-2.058c2.961,0.056,7.101,0.483,11.656,1.097"/>
	<g opacity="0.5">
		<g>
			<path fill="none" stroke="#BB8900" stroke-width="3" stroke-linecap="square" stroke-linejoin="bevel" d="M150.625,281
				c-5.875,0-6.355,3.785-9.125,5.5c-0.217,0.135-0.492,0.272-0.813,0.412"/>
			
				<path fill="none" stroke="#BB8900" stroke-width="3" stroke-linecap="square" stroke-linejoin="bevel" stroke-dasharray="25.8075,8.6025" d="
				M132.339,288.907c-0.875,0.091-1.678,0.128-2.339,0.093c-3.167-0.167-6.995-0.353-10-0.5s-27.333-0.912-33.5-0.5
				c-0.818,0.055-5.433,0.813-8.5,0.5c-4.083-0.417-6.102-2.556-8.75-4.5s-1.833-2.5-8.25-3c-5.031-0.392-35.975-5.297-53.195-3.851
				C3.062,277.548,2.667,283.625-4.5,285c-6.019,1.155-47,17.488-47,17.488l-10.204-0.186"/>
		</g>
	</g>
</g>
<g id="M5">
	<path opacity="0.5" fill="none" stroke="#AE005F" stroke-width="3" stroke-linecap="square" stroke-linejoin="bevel" d="M425-114.5
		L423.716-67L420.5-11.5l12,30.5v33l-3,23.82l1.875,12.367l0.25,61.813l2.228,68.689c0,0,0.103,7.29,0,10.144
		s-3.073,3.383-3.197,6.992s1.907,102.674,1.907,102.674l1.688,56.667c0.125,4.646,3.5,9.001,4.25,16.667l1.063,40.854l0.938,22.521
		c0,0,0.063,6.707,0,15.624s6.745,13.667,13.167,13.667s6.421,0,6.421,0"/>
</g>
<g id="M4">
	<path opacity="0.5" fill="none" stroke="#008193" stroke-width="3" stroke-linecap="square" stroke-linejoin="bevel" d="
		M139.667,66.25v14.333c0,2.667,0.474,6.083,2.083,7.917l6.25,7.125c1.987,2.675,3.552,4.037,6.375,4.375
		c1.324,0.159,7.11-0.048,10,1.125l17.125,9c3.875,2.125,10.087,2.391,14.424,2.198l8.663-0.259c4.917,0,7.997-4.981,12.913-5.064
		c8.086-0.137,10.534,3.252,10.942,7.498S229.26,123,229.26,123l2.24,21.833l0.5,21l11.583,32.917c0,0,5.147,51.106,5.785,56.174
		c0.882,7.014,3.632,10.389,11.571,10.444l15.308,0.154l8.253-0.718l9.162-2.758c0,0,0,0,6.495-1.343
		c1.136-0.235,3.259-0.537,4.676-0.537s10.417,0,10.417,0h12.5h9.327c4.256,0.084,5.673,2.251,5.923,6.251L343.953,290l1.547,54.625
		l0.621,32.459v32.75v13.25c0,7.833,5.414,4.574,7.129,13.749l1.576,8.036C355.465,447.5,356,450.856,356,453
		c0,3.333,0,2.188,0,4.75c0,1.808,0,3.834-3,7.001c-1.122,1.185-4.688,4.407-5.768,5.229c-3.667,2.788-6.398,4.478-6.564,9.546
		s-0.584,12.391-0.584,12.391L339.504,521l-0.3,14.999"/>
</g>
<g id="M2">
	<path opacity="0.5" fill="none" stroke="#00529B" stroke-width="3" stroke-linecap="square" stroke-linejoin="bevel" d="M309,253.5
		l32-15c0,0,107.998-1.374,112.499-1.562s9.919,2.616,10.163,8.21s3.937,90.346,3.937,90.346l0.277,8.28
		c0.103,1.871-0.875,3.038-1.813,4.101c-0.927,1.05-2.37,2.19-3.563,3.313c-1.063,1-2.982,1.647-4.439,1.666L446.625,353
		c-2.024,0.026-2.929,0.461-4.487,1.667c-1.748,1.353-3.815,3.014-4.721,3.974c-1.714,1.815-3.419,4.435-7.917,4.609
		s-98.125,2.465-106.875,2.465S309,362.512,309,353.5S309,253.5,309,253.5z"/>
</g>
<g id="M1">
	<path opacity="0.5" fill="none" stroke="#A12830" stroke-width="3" stroke-linecap="square" stroke-linejoin="bevel" d="
		M-44.155,299.087l15.281,20.428c1.437,1.86,2.002,3.372,2.01,5.372L-26.75,341c0.036,2.679,2.254,4.988,4.252,4.979
		s587.365-2.642,587.365-2.642L584.5,339.5h41"/>
</g>
<g id="M10">
	<path fill="none" stroke="#0092C7" stroke-width="5" stroke-linecap="square" stroke-linejoin="bevel" d="M180.75,173.412
		c3,0,10.25-0.412,10.25-0.412l18.5-3.5l36.042-2.351l14.47-0.708l77.635-1.004l127.389-1.708c2.57,0,8.366,0.541,9.839,0.688
		c2.063,0.207,4.545,2.439,5.458,3.169s6.771,5.413,6.771,5.413l25.479,23.246c2.417,2.379,2.935,6.135,0.494,9.011
		c-1.276,1.503-3.327,3.92-3.327,3.92l-1.653,1.977c-2.558,3.046-1.497,6.313,1.169,8.578c0,0,1.895,1.609,4.901,4.163
		S519,230,519,235.5v24.667v106.208c0,4.542,1,4.792,1,8.959v35c0,3.417-2,6.833-2,9.833v16.666
		c-0.083,5.417,0.731,12.062-2.186,15.562l-12.249,12.834c-2.923,3.146-3.315,9.021-1.648,17.021l2.449,12.176
		c1.634,6.275-2.45,10.124-6.95,10.124l-60-0.05h-44.17H354c0,0-58.089,0.043-61.917,0.006c-5.528-0.054-9.055,3.077-14.417,3.077
		c-11.99,0-45.732,0-53.333,0c-2.728,0-9.75,0.584-12.667-6.5l-4.167-10.921c-1.75-5.912-0.167-8.412-0.5-13.787l-0.75-24.995
		l-0.375-25.255l-0.577-33.208C205.083,387.833,210,383.75,213.5,381s5.157-4.875,5.125-8s-0.125-12.167-0.125-12.167l-0.485-17.583
		c0,0-1.229-11.088-1.233-14.413s-1.756-8.412-7.282-8.837l-10.7-1.748c-2.217-0.665-4.467-2.002-4.3-6.129
		c0.156-3.873,0.129-11.207,0-13.956c-0.25-5.34-4.985-4.484-5.25-10.917s-0.938-22.772-0.938-22.772l-0.645-22.644l-0.75-24.315
		l-3.389-9.481c0,0-9.021-16.925-10.251-19.839C169.778,179.908,174.344,173.412,180.75,173.412z"/>
</g>
<g id="M10注释">
	<path fill="none" stroke="#0092C7" stroke-linecap="square" stroke-linejoin="bevel" d="M186.305,171.828
		c7.36-0.917,12.646-4.3,12.646-8.098v-3.479v-9.083h-4.327l-0.029,9.083l4.356,3.479"/>
	<circle id="天安门东_35_" fill="#FFFFFF" stroke="#000000" stroke-width="1.4" cx="232.625" cy="168.029" r="3.799"/>
	<text id="zh-hans_天安门东_41_" transform="matrix(1 0 0 1 212.625 160.25)" font-family="'SimHei'" font-size="10">海淀黄庄</text>
	<circle id="天安门东_36_" fill="#FFFFFF" stroke="#000000" stroke-width="1.4" cx="258.625" cy="166.543" r="3.799"/>
	<circle id="天安门东_37_" fill="#FFFFFF" stroke="#000000" stroke-width="1.4" cx="281.75" cy="166.23" r="3.799"/>
	<circle id="天安门东_38_" fill="#FFFFFF" stroke="#000000" stroke-width="1.4" cx="305.548" cy="165.814" r="3.799"/>
	<circle id="天安门东_39_" fill="#FFFFFF" stroke="#000000" stroke-width="1.4" cx="337.077" cy="165.418" r="3.799"/>
	<circle id="天安门东_40_" fill="#FFFFFF" stroke="#000000" stroke-width="1.4" cx="360.563" cy="165.105" r="3.799"/>
	<circle id="天安门东_41_" fill="#FFFFFF" stroke="#000000" stroke-width="1.4" cx="385.813" cy="165.105" r="3.799"/>
	<circle id="天安门东_42_" fill="#FFFFFF" stroke="#000000" stroke-width="1.4" cx="408.938" cy="164.418" r="3.799"/>
	<circle id="天安门东_43_" fill="#FFFFFF" stroke="#000000" stroke-width="1.4" cx="432.25" cy="163.729" r="3.799"/>
	<circle id="天安门东_44_" fill="#FFFFFF" stroke="#000000" stroke-width="1.4" cx="210.875" cy="169.613" r="3.799"/>
	<circle id="天安门东_45_" fill="#FFFFFF" stroke="#000000" stroke-width="1.4" cx="185.75" cy="173.412" r="3.799"/>
	<circle id="天安门东_46_" fill="#FFFFFF" stroke="#000000" stroke-width="1.4" cx="176.438" cy="194.849" r="3.799"/>
	<circle id="天安门东_47_" fill="#FFFFFF" stroke="#000000" stroke-width="1.4" cx="185.25" cy="213.162" r="3.799"/>
	<circle id="天安门东_48_" fill="#FFFFFF" stroke="#000000" stroke-width="1.4" cx="187.625" cy="241.537" r="3.799"/>
	<circle id="天安门东_49_" fill="#FFFFFF" stroke="#000000" stroke-width="1.4" cx="188.875" cy="278.826" r="3.799"/>
	<circle id="天安门东_50_" fill="#FFFFFF" stroke="#000000" stroke-width="1.4" cx="194.625" cy="303.199" r="3.799"/>
	<circle id="天安门东_51_" fill="#FFFFFF" stroke="#000000" stroke-width="1.4" cx="217.902" cy="344.912" r="3.799"/>
	<circle id="天安门东_52_" fill="#FFFFFF" stroke="#000000" stroke-width="1.4" cx="218.625" cy="371.162" r="3.799"/>
	<circle id="天安门东_53_" fill="#FFFFFF" stroke="#000000" stroke-width="1.4" cx="205.75" cy="413.204" r="3.799"/>
	<circle id="天安门东_54_" fill="#FFFFFF" stroke="#000000" stroke-width="1.4" cx="206.25" cy="454.044" r="3.799"/>
	<circle id="天安门东_55_" fill="#FFFFFF" stroke="#000000" stroke-width="1.4" cx="206.875" cy="472.454" r="3.799"/>
	<circle id="天安门东_56_" fill="#FFFFFF" stroke="#000000" stroke-width="1.4" cx="208.132" cy="491.079" r="3.799"/>
	<circle id="天安门东_57_" fill="#FFFFFF" stroke="#000000" stroke-width="1.4" cx="472.632" cy="164.105" r="3.799"/>
	<circle id="天安门东_58_" fill="#FFFFFF" stroke="#000000" stroke-width="1.4" cx="490.896" cy="176.543" r="3.799"/>
	<circle id="天安门东_59_" fill="#FFFFFF" stroke="#000000" stroke-width="1.4" cx="511.459" cy="207.355" r="3.799"/>
	<circle id="天安门东_60_" fill="#FFFFFF" stroke="#000000" stroke-width="1.4" cx="518.916" cy="236.939" r="3.799"/>
	<circle id="天安门东_61_" fill="#FFFFFF" stroke="#000000" stroke-width="1.4" cx="518.916" cy="257.5" r="3.799"/>
	<circle id="天安门东_62_" fill="#FFFFFF" stroke="#000000" stroke-width="1.4" cx="518.916" cy="277.689" r="3.799"/>
	<circle id="天安门东_63_" fill="#FFFFFF" stroke="#000000" stroke-width="1.4" cx="518.916" cy="303.944" r="3.799"/>
	<circle id="天安门东_64_" fill="#FFFFFF" stroke="#000000" stroke-width="1.4" cx="519" cy="322.533" r="3.799"/>
	<circle id="天安门东_65_" fill="#FFFFFF" stroke="#000000" stroke-width="1.4" cx="518.916" cy="341.725" r="3.799"/>
	<circle id="天安门东_66_" fill="#FFFFFF" stroke="#000000" stroke-width="1.4" cx="520" cy="381.416" r="3.799"/>
	<circle id="天安门东_67_" fill="#FFFFFF" stroke="#000000" stroke-width="1.4" cx="520" cy="404.689" r="3.799"/>
	<circle id="天安门东_68_" fill="#FFFFFF" stroke="#000000" stroke-width="1.4" cx="517.917" cy="425.758" r="3.799"/>
	<circle id="天安门东_69_" fill="#FFFFFF" stroke="#000000" stroke-width="1.4" cx="513.667" cy="454.591" r="3.799"/>
	<circle id="天安门东_70_" fill="#FFFFFF" stroke="#000000" stroke-width="1.4" cx="491.667" cy="504.5" r="3.799"/>
	<circle id="天安门东_71_" fill="#FFFFFF" stroke="#000000" stroke-width="1.4" cx="503.149" cy="488.382" r="3.799"/>
	<circle id="天安门东_72_" fill="#FFFFFF" stroke="#000000" stroke-width="1.4" cx="460.088" cy="504.5" r="3.799"/>
	<circle id="天安门东_73_" fill="#FFFFFF" stroke="#000000" stroke-width="1.4" cx="424.921" cy="504.55" r="3.799"/>
	<circle id="天安门东_74_" fill="#FFFFFF" stroke="#000000" stroke-width="1.4" cx="395.671" cy="504.5" r="3.799"/>
	<circle id="天安门东_75_" fill="#FFFFFF" stroke="#000000" stroke-width="1.4" cx="369.338" cy="504.55" r="3.799"/>
	<circle id="天安门东_76_" fill="#FFFFFF" stroke="#000000" stroke-width="1.4" cx="339.504" cy="504.5" r="3.799"/>
	<circle id="天安门东_77_" fill="#FFFFFF" stroke="#000000" stroke-width="1.4" cx="299.754" cy="504.166" r="3.799"/>
	<circle id="天安门东_78_" fill="#FFFFFF" stroke="#000000" stroke-width="1.4" cx="264.671" cy="507.583" r="3.799"/>
	<circle id="天安门东_79_" fill="#FFFFFF" stroke="#000000" stroke-width="1.4" cx="238.838" cy="507.583" r="3.799"/>
	<text id="zh-hans_天安门东_43_" transform="matrix(1 0 0 1 195.875 184.25)" font-family="'SimHei'" font-size="10">苏州街</text>
	<text id="zh-hans_天安门东_44_" transform="matrix(1 0 0 1 171.4517 166.543)" font-family="'SimHei'" font-size="10">巴沟</text>
	<text id="zh-hans_天安门东_45_" transform="matrix(1 0 0 1 137.9517 198.6484)" font-family="'SimHei'" font-size="10">火器营</text>
	<text id="zh-hans_天安门东_46_" transform="matrix(1 0 0 1 147.7017 218.043)" font-family="'SimHei'" font-size="10">长春桥</text>
	<text id="zh-hans_天安门东_47_" transform="matrix(1 0 0 1 151.4517 245.3359)" font-family="'SimHei'" font-size="10">车道沟</text>
	<text id="zh-hans_天安门东_48_" transform="matrix(1 0 0 1 195.9517 281.543)" font-family="'SimHei'" font-size="10">慈寿寺</text>
	<text id="zh-hans_天安门东_49_" transform="matrix(1 0 0 1 146.3052 306.998)" font-family="'SimHei'" font-size="10">西钓鱼台</text>
	<text id="zh-hans_天安门东_50_" transform="matrix(1 0 0 1 179.5483 347.793)" font-family="'SimHei'" font-size="10">公主坟</text>
	<text id="zh-hans_天安门东_51_" transform="matrix(1 0 0 1 226.4517 374.168)" font-family="'SimHei'" font-size="10">莲花桥</text>
	<text id="zh-hans_天安门东_52_" transform="matrix(1 0 0 1 168.9517 416.168)" font-family="'SimHei'" font-size="10">六里桥</text>
	<text id="zh-hans_天安门东_53_" transform="matrix(1 0 0 1 214.8267 456.5039)" font-family="'SimHei'" font-size="10">西局</text>
	<text id="zh-hans_天安门东_54_" transform="matrix(1 0 0 1 178.9517 476.252)" font-family="'SimHei'" font-size="10">泥洼</text>
	<text id="zh-hans_天安门东_55_" transform="matrix(1 0 0 1 170.9517 495.833)" font-family="'SimHei'" font-size="10">丰台站</text>
	<text id="zh-hans_天安门东_56_" transform="matrix(1 0 0 1 223.8379 522.0586)" font-family="'SimHei'" font-size="10">首经贸</text>
	<text id="zh-hans_天安门东_57_" transform="matrix(1 0 0 1 249.6709 499.0586)" font-family="'SimHei'" font-size="10">纪家庙</text>
	<text id="zh-hans_天安门东_61_" transform="matrix(1 0 0 1 289.7544 519.8086)" font-family="'SimHei'" font-size="10">草桥</text>
	<text id="zh-hans_天安门东_59_" transform="matrix(1 0 0 1 324.5044 495.833)" font-family="'SimHei'" font-size="10">角门西</text>
	<text id="zh-hans_天安门东_60_" transform="matrix(1 0 0 1 354.3379 519.8086)" font-family="'SimHei'" font-size="10">角门东</text>
	<text id="zh-hans_天安门东_58_" transform="matrix(1 0 0 1 380.6709 495.833)" font-family="'SimHei'" font-size="10">大红门</text>
	<text id="zh-hans_天安门东_62_" transform="matrix(1 0 0 1 409.9209 519.8086)" font-family="'SimHei'" font-size="10">石榴庄</text>
	<text id="zh-hans_天安门东_63_" transform="matrix(1 0 0 1 445.0879 495.833)" font-family="'SimHei'" font-size="10">宋家庄</text>
	<text id="zh-hans_天安门东_64_" transform="matrix(1 0 0 1 476.6665 519.8086)" font-family="'SimHei'" font-size="10">成寿寺</text>
	<text id="zh-hans_天安门东_65_" transform="matrix(1 0 0 1 509.8682 490.8086)" font-family="'SimHei'" font-size="10">分钟寺</text>
	<text id="zh-hans_天安门东_66_" transform="matrix(1 0 0 1 519 464.918)" font-family="'SimHei'" font-size="10">十里河</text>
	<text id="zh-hans_天安门东_67_" transform="matrix(1 0 0 1 526.333 428.4746)" font-family="'SimHei'" font-size="10">潘家园</text>
	<text id="zh-hans_天安门东_68_" transform="matrix(1 0 0 1 492.4873 407.585)" font-family="'SimHei'" font-size="10">劲松</text>
	<text id="zh-hans_天安门东_69_" transform="matrix(1 0 0 1 527.6533 385.0967)" font-family="'SimHei'" font-size="10">双井</text>
	<text id="zh-hans_天安门东_70_" transform="matrix(1 0 0 1 526.333 343.7637)" font-family="'SimHei'" font-size="10">国贸</text>
	<text id="zh-hans_天安门东_71_" transform="matrix(1 0 0 1 472.4873 326.332)" font-family="'SimHei'" font-size="10">金台夕照</text>
	<text id="zh-hans_天安门东_72_" transform="matrix(1 0 0 1 526.333 307.7422)" font-family="'SimHei'" font-size="10">呼家楼</text>
	<text id="zh-hans_天安门东_73_" transform="matrix(1 0 0 1 526.333 281.4873)" font-family="'SimHei'" font-size="10">团结湖</text>
	<text id="zh-hans_天安门东_74_" transform="matrix(1 0 0 1 526.333 261.2979)" font-family="'SimHei'" font-size="10">农业展览馆</text>
	<text id="zh-hans_天安门东_75_" transform="matrix(1 0 0 1 526.333 240.7373)" font-family="'SimHei'" font-size="10">亮马桥</text>
	<text id="zh-hans_天安门东_76_" transform="matrix(1 0 0 1 520 211.1543)" font-family="'SimHei'" font-size="10">三元桥</text>
	<text id="zh-hans_天安门东_77_" transform="matrix(1 0 0 1 496.6665 171.9307)" font-family="'SimHei'" font-size="10">太阳宫</text>
	<text id="zh-hans_天安门东_78_" transform="matrix(1 0 0 1 457.6323 155.5977)" font-family="'SimHei'" font-size="10">芍药居</text>
	<text id="zh-hans_天安门东_79_" transform="matrix(1 0 0 1 412.25 178.5977)" enable-background="new    "><tspan x="0" y="0" font-family="'SimHei'" font-size="10">惠新西街</tspan><tspan x="10" y="12" font-family="'SimHei'" font-size="10">南口</tspan></text>
	<text id="zh-hans_天安门东_80_" transform="matrix(1 0 0 1 393.9375 156.9307)" font-family="'SimHei'" font-size="10">安贞门</text>
	<text id="zh-hans_天安门东_81_" transform="matrix(1 0 0 1 370.8125 179.5977)" font-family="'SimHei'" font-size="10">北土城</text>
	<text id="zh-hans_天安门东_82_" transform="matrix(1 0 0 1 345.5625 156.9307)" font-family="'SimHei'" font-size="10">健德门</text>
	<text id="zh-hans_天安门东_83_" transform="matrix(1 0 0 1 323.0771 179.5977)" font-family="'SimHei'" font-size="10">牡丹园</text>
	<text id="zh-hans_天安门东_84_" transform="matrix(1 0 0 1 289.5483 179.5977)" font-family="'SimHei'" font-size="10">西土城</text>
	<text id="zh-hans_天安门东_85_" transform="matrix(1 0 0 1 266.75 158.9307)" font-family="'SimHei'" font-size="10">知春路</text>
	<text id="zh-hans_天安门东_86_" transform="matrix(1 0 0 1 243.625 180.9307)" font-family="'SimHei'" font-size="10">知春里</text>
	<path fill="none" stroke="#0092C7" stroke-linecap="square" stroke-linejoin="bevel" d="M186.75,268.333
		c0.017,3.334-0.445,5.667-4.214,6.694l-2.3,3.798h-9.569v-3.798h11.87"/>
	<g>
		<path fill="none" stroke="#0092C7" stroke-linecap="square" stroke-linejoin="bevel" d="M477,506.323
			c-4.333,0.034-6.333,0.51-6.333,8.027l1.965,1.816v8h-4.299v-8l2.333-1.816"/>
		<path fill="none" stroke="#0092C7" stroke-linecap="square" stroke-linejoin="bevel" d="M465.917,506.5
			c3-0.022,4.75,0.75,4.75,7.851"/>
		<text id="zh-hans_天安门东_87_" transform="matrix(1 0 0 1 439.833 536.8672)" font-family="'SimHei'" font-size="10">宋家庄停车场</text>
	</g>
	<text id="zh-hans_天安门东_88_" transform="matrix(1 0 0 1 115.6665 280.4873)" font-family="'SimHei'" font-size="10">五路停车场</text>
	<text id="zh-hans_天安门东_89_" transform="matrix(1 0 0 1 169.625 143.584)" font-family="'SimHei'" font-size="10">万柳车辆段</text>
	
		<text id="zh-hans_天安门东_90_" transform="matrix(1 0 0 1 556.3926 125.3555)" display="none" enable-background="new    " font-family="'SimHei'" font-size="15">2008年7月19日通车</text>
	
		<text id="zh-hans_天安门东_91_" transform="matrix(1 0 0 1 311.4697 335.6621)" display="none" enable-background="new    " font-family="'SimHei'" font-size="15">二期</text>
	
		<text id="zh-hans_天安门东_92_" transform="matrix(1 0 0 1 305.6362 578.7461)" display="none" enable-background="new    " font-family="'SimHei'" font-size="15">2012年12月30日通车</text>
	
		<text id="zh-hans_天安门东_93_" transform="matrix(1 0 0 1 7.3755 177.2109)" display="none" enable-background="new    " font-family="'SimHei'" font-size="15">2012年12月30日通车</text>
	
		<text id="zh-hans_天安门东_94_" transform="matrix(1 0 0 1 30.8755 491.1797)" display="none" enable-background="new    " font-family="'SimHei'" font-size="15">2013年5月5日通车</text>
	<line display="none" fill="none" stroke="#000000" stroke-width="2" x1="14.956" y1="456.504" x2="188.875" y2="456.504"/>
	<line display="none" fill="none" stroke="#000000" stroke-width="2" x1="14.956" y1="514.351" x2="188.875" y2="514.351"/>
	<line display="none" fill="none" stroke="#000000" stroke-width="2" x1="177.702" y1="21.784" x2="177.702" y2="132.853"/>
	
		<text id="zh-hans_天安门东_95_" transform="matrix(1 0 0 1 337.3379 529.8086)" display="none" enable-background="new    " font-family="'SimHei'" font-size="8">2013年5月5日启用</text>
	<line display="none" fill="none" stroke="#000000" stroke-width="2" x1="532.702" y1="414.391" x2="719.327" y2="414.391"/>
	<polyline display="none" fill="none" stroke="#000000" stroke-width="2" points="180.236,180.931 482.002,414.391 509.868,414.391 
			"/>
	
		<text id="zh-hans_天安门东_96_" transform="matrix(1 0 0 1 403.5 335.6621)" display="none" enable-background="new    " font-family="'SimHei'" font-size="15">一期</text>
</g>
</svg>