<svg xmlns="http://www.w3.org/2000/svg" viewBox="0 0 1200 820" fill="none">
<defs><style>text{font-family:"Microsoft YaHei","PingFang SC",sans-serif}.nm{font-size:11px;fill:#1a2a44}.code{font-size:8.5px;fill:#7a8aa0}.seq{font-size:7.5px;fill:#fff;font-weight:700}</style>
<linearGradient id="ring" x1="0" y1="0" x2="1" y2="1"><stop offset="0" stop-color="#1565c0"/><stop offset="1" stop-color="#0d47a1"/></linearGradient></defs>
<rect width="1200" height="820" fill="#fbfcfe"/>
<text x="40" y="50" font-size="26" font-weight="bold" fill="#0f2540">北京地铁10号线 · 线路示意图</text>
<text x="40" y="74" font-size="13" fill="#5a6a82">Beijing Subway Line 10 · 环线 · 45座车站 · 全长57.1km · 运营单位：北京市地铁运营有限公司运营三分公司</text>
<polyline points="280.0,150.0 293.1,150.0 306.2,150.0 319.3,150.0 332.4,150.0 345.6,150.0 358.7,150.0 371.8,150.0 384.9,150.0 398.0,150.0 411.1,150.0 424.2,150.0 437.3,150.0 450.5,150.0 463.6,150.0 476.7,150.0 489.8,150.0 502.9,150.0 516.0,150.0 529.1,150.0 542.2,150.0 555.4,150.0 568.5,150.0 581.6,150.0 594.7,150.0 607.8,150.0 620.9,150.0 634.0,150.0 647.1,150.0 660.3,150.0 673.4,150.0 686.5,150.0 699.6,150.0 712.7,150.0 725.8,150.0 738.9,150.0 752.0,150.0 765.2,150.0 778.3,150.0 791.4,150.0 804.5,150.0 817.6,150.0 830.7,150.0 843.8,150.0 856.9,150.0 870.1,150.0 883.2,150.0 896.3,150.0 909.4,150.0 282.5,150.0 295.6,150.8 308.6,152.7 321.3,155.8 333.7,160.0 345.8,165.2 357.3,171.4 368.2,178.7 378.5,186.8 388.0,195.9 396.6,205.7 404.4,216.2 411.3,227.4 417.1,239.2 421.9,251.4 425.6,263.9 428.2,276.8 429.7,289.8 1070.0,302.9 1070.0,316.0 1070.0,329.1 1070.0,342.2 1070.0,355.4 1070.0,368.5 1070.0,381.6 1070.0,394.7 1070.0,407.8 1070.0,420.9 1070.0,434.0 1070.0,447.1 1070.0,460.3 1070.0,473.4 1070.0,486.5 1070.0,499.6 1069.5,512.7 1067.8,525.7 1065.0,538.5 1061.1,551.0 1056.1,563.1 1050.0,574.8 1043.0,585.8 1035.1,596.2 1026.2,605.9 1016.6,614.8 1006.2,622.8 995.1,629.8 983.5,635.9 971.4,640.9 958.9,644.9 946.1,647.7 933.1,649.4 920.0,650.0 906.9,650.0 893.8,650.0 880.7,650.0 867.6,650.0 854.4,650.0 841.3,650.0 828.2,650.0 815.1,650.0 802.0,650.0 788.9,650.0 775.8,650.0 762.7,650.0 749.5,650.0 736.4,650.0 723.3,650.0 710.2,650.0 697.1,650.0 684.0,650.0 670.9,650.0 657.8,650.0 644.6,650.0 631.5,650.0 618.4,650.0 605.3,650.0 592.2,650.0 579.1,650.0 566.0,650.0 552.9,650.0 539.7,650.0 526.6,650.0 513.5,650.0 500.4,650.0 487.3,650.0 474.2,650.0 461.1,650.0 448.0,650.0 434.8,650.0 421.7,650.0 408.6,650.0 395.5,650.0 382.4,650.0 369.3,650.0 356.2,650.0 343.1,650.0 329.9,650.0 316.8,650.0 303.7,650.0 290.6,650.0 130.0,502.5 130.8,515.6 132.7,528.6 135.8,541.3 140.0,553.7 145.2,565.8 151.4,577.3 158.7,588.2 166.8,598.5 175.9,608.0 185.7,616.6 196.2,624.4 207.4,631.3 219.2,637.1 231.4,641.9 243.9,645.6 256.8,648.2 269.8,649.7 130.0,497.1 130.0,484.0 130.0,470.9 130.0,457.8 130.0,444.6 130.0,431.5 130.0,418.4 130.0,405.3 130.0,392.2 130.0,379.1 130.0,366.0 130.0,352.9 130.0,339.7 130.0,326.6 130.0,313.5 130.0,300.4 267.3,150.5 254.3,152.2 241.5,155.0 229.0,158.9 216.9,163.9 205.2,170.0 194.2,177.0 183.8,184.9 174.1,193.8 165.2,203.4 157.2,213.8 150.2,224.9 144.1,236.5 139.1,248.6 135.1,261.1 132.3,273.9 130.6,286.9 130.0,300.0" fill="none" stroke="url(#ring)" stroke-width="11" stroke-linejoin="round" stroke-linecap="round"/>
<polyline points="280.0,150.0 293.1,150.0 306.2,150.0 319.3,150.0 332.4,150.0 345.6,150.0 358.7,150.0 371.8,150.0 384.9,150.0 398.0,150.0 411.1,150.0 424.2,150.0 437.3,150.0 450.5,150.0 463.6,150.0 476.7,150.0 489.8,150.0 502.9,150.0 516.0,150.0 529.1,150.0 542.2,150.0 555.4,150.0 568.5,150.0 581.6,150.0 594.7,150.0 607.8,150.0 620.9,150.0 634.0,150.0 647.1,150.0 660.3,150.0 673.4,150.0 686.5,150.0 699.6,150.0 712.7,150.0 725.8,150.0 738.9,150.0 752.0,150.0 765.2,150.0 778.3,150.0 791.4,150.0 804.5,150.0 817.6,150.0 830.7,150.0 843.8,150.0 856.9,150.0 870.1,150.0 883.2,150.0 896.3,150.0 909.4,150.0 282.5,150.0 295.6,150.8 308.6,152.7 321.3,155.8 333.7,160.0 345.8,165.2 357.3,171.4 368.2,178.7 378.5,186.8 388.0,195.9 396.6,205.7 404.4,216.2 411.3,227.4 417.1,239.2 421.9,251.4 425.6,263.9 428.2,276.8 429.7,289.8 1070.0,302.9 1070.0,316.0 1070.0,329.1 1070.0,342.2 1070.0,355.4 1070.0,368.5 1070.0,381.6 1070.0,394.7 1070.0,407.8 1070.0,420.9 1070.0,434.0 1070.0,447.1 1070.0,460.3 1070.0,473.4 1070.0,486.5 1070.0,499.6 1069.5,512.7 1067.8,525.7 1065.0,538.5 1061.1,551.0 1056.1,563.1 1050.0,574.8 1043.0,585.8 1035.1,596.2 1026.2,605.9 1016.6,614.8 1006.2,622.8 995.1,629.8 983.5,635.9 971.4,640.9 958.9,644.9 946.1,647.7 933.1,649.4 920.0,650.0 906.9,650.0 893.8,650.0 880.7,650.0 867.6,650.0 854.4,650.0 841.3,650.0 828.2,650.0 815.1,650.0 802.0,650.0 788.9,650.0 775.8,650.0 762.7,650.0 749.5,650.0 736.4,650.0 723.3,650.0 710.2,650.0 697.1,650.0 684.0,650.0 670.9,650.0 657.8,650.0 644.6,650.0 631.5,650.0 618.4,650.0 605.3,650.0 592.2,650.0 579.1,650.0 566.0,650.0 552.9,650.0 539.7,650.0 526.6,650.0 513.5,650.0 500.4,650.0 487.3,650.0 474.2,650.0 461.1,650.0 448.0,650.0 434.8,650.0 421.7,650.0 408.6,650.0 395.5,650.0 382.4,650.0 369.3,650.0 356.2,650.0 343.1,650.0 329.9,650.0 316.8,650.0 303.7,650.0 290.6,650.0 130.0,502.5 130.8,515.6 132.7,528.6 135.8,541.3 140.0,553.7 145.2,565.8 151.4,577.3 158.7,588.2 166.8,598.5 175.9,608.0 185.7,616.6 196.2,624.4 207.4,631.3 219.2,637.1 231.4,641.9 243.9,645.6 256.8,648.2 269.8,649.7 130.0,497.1 130.0,484.0 130.0,470.9 130.0,457.8 130.0,444.6 130.0,431.5 130.0,418.4 130.0,405.3 130.0,392.2 130.0,379.1 130.0,366.0 130.0,352.9 130.0,339.7 130.0,326.6 130.0,313.5 130.0,300.4 267.3,150.5 254.3,152.2 241.5,155.0 229.0,158.9 216.9,163.9 205.2,170.0 194.2,177.0 183.8,184.9 174.1,193.8 165.2,203.4 157.2,213.8 150.2,224.9 144.1,236.5 139.1,248.6 135.1,261.1 132.3,273.9 130.6,286.9 130.0,300.0" fill="none" stroke="#1e88e5" stroke-width="3" opacity="0.35"/>
<circle cx="280.0" cy="150.0" r="9" fill="#fff" stroke="#1565c0" stroke-width="3"/>
<circle cx="280.0" cy="150.0" r="13" fill="none" stroke="#ff9800" stroke-width="2.5"/>
<circle cx="280.0" cy="150.0" r="4" fill="#ff9800"/>
<text x="280.0" y="152.6" class="seq" text-anchor="middle">1</text>
<text x="280.0" y="132.0" class="nm" text-anchor="middle">巴沟</text>
<text x="280.0" y="142.0" class="code" text-anchor="middle">BG</text>
<circle cx="338.3" cy="150.0" r="6" fill="#fff" stroke="#1565c0" stroke-width="2.5"/>
<circle cx="338.3" cy="150.0" r="2.5" fill="#1565c0"/>
<text x="338.3" y="152.6" class="seq" text-anchor="middle">2</text>
<text x="338.3" y="132.0" class="nm" text-anchor="middle">车道沟</text>
<text x="338.3" y="142.0" class="code" text-anchor="middle">CDG</text>
<circle cx="396.6" cy="150.0" r="6" fill="#fff" stroke="#1565c0" stroke-width="2.5"/>
<circle cx="396.6" cy="150.0" r="2.5" fill="#1565c0"/>
<text x="396.6" y="152.6" class="seq" text-anchor="middle">3</text>
<text x="396.6" y="132.0" class="nm" text-anchor="middle">长春桥</text>
<text x="396.6" y="142.0" class="code" text-anchor="middle">CCQ</text>
<circle cx="454.8" cy="150.0" r="6" fill="#fff" stroke="#1565c0" stroke-width="2.5"/>
<circle cx="454.8" cy="150.0" r="2.5" fill="#1565c0"/>
<text x="454.8" y="152.6" class="seq" text-anchor="middle">4</text>
<text x="454.8" y="132.0" class="nm" text-anchor="middle">火器营</text>
<text x="454.8" y="142.0" class="code" text-anchor="middle">HQY</text>
<circle cx="513.1" cy="150.0" r="6" fill="#fff" stroke="#1565c0" stroke-width="2.5"/>
<circle cx="513.1" cy="150.0" r="2.5" fill="#1565c0"/>
<text x="513.1" y="152.6" class="seq" text-anchor="middle">5</text>
<text x="513.1" y="132.0" class="nm" text-anchor="middle">万柳</text>
<text x="513.1" y="142.0" class="code" text-anchor="middle">BGDP</text>
<circle cx="571.4" cy="150.0" r="8" fill="#fff" stroke="#1565c0" stroke-width="3"/>
<circle cx="571.4" cy="150.0" r="3.5" fill="#1565c0"/>
<text x="571.4" y="152.6" class="seq" text-anchor="middle">6</text>
<text x="571.4" y="132.0" class="nm" text-anchor="middle">苏州街</text>
<text x="571.4" y="142.0" class="code" text-anchor="middle">SZJ</text>
<text x="571.4" y="152.0" font-size="8" fill="#1565c0" text-anchor="middle">↔16号线</text>
<circle cx="629.7" cy="150.0" r="8" fill="#fff" stroke="#1565c0" stroke-width="3"/>
<circle cx="629.7" cy="150.0" r="3.5" fill="#1565c0"/>
<text x="629.7" y="152.6" class="seq" text-anchor="middle">7</text>
<text x="629.7" y="132.0" class="nm" text-anchor="middle">海淀黄庄</text>
<text x="629.7" y="142.0" class="code" text-anchor="middle">HDHZ</text>
<text x="629.7" y="152.0" font-size="8" fill="#1565c0" text-anchor="middle">↔4号线</text>
<circle cx="687.9" cy="150.0" r="6" fill="#fff" stroke="#1565c0" stroke-width="2.5"/>
<circle cx="687.9" cy="150.0" r="2.5" fill="#1565c0"/>
<text x="687.9" y="152.6" class="seq" text-anchor="middle">8</text>
<text x="687.9" y="132.0" class="nm" text-anchor="middle">知春里</text>
<text x="687.9" y="142.0" class="code" text-anchor="middle">ZCL</text>
<circle cx="746.2" cy="150.0" r="8" fill="#fff" stroke="#1565c0" stroke-width="3"/>
<circle cx="746.2" cy="150.0" r="3.5" fill="#1565c0"/>
<text x="746.2" y="152.6" class="seq" text-anchor="middle">9</text>
<text x="746.2" y="132.0" class="nm" text-anchor="middle">知春路</text>
<text x="746.2" y="142.0" class="code" text-anchor="middle">ZCLU</text>
<text x="746.2" y="152.0" font-size="8" fill="#1565c0" text-anchor="middle">↔13号线</text>
<circle cx="804.5" cy="150.0" r="8" fill="#fff" stroke="#1565c0" stroke-width="3"/>
<circle cx="804.5" cy="150.0" r="3.5" fill="#1565c0"/>
<text x="804.5" y="152.6" class="seq" text-anchor="middle">10</text>
<text x="804.5" y="132.0" class="nm" text-anchor="middle">西土城</text>
<text x="804.5" y="142.0" class="code" text-anchor="middle">XTC</text>
<text x="804.5" y="152.0" font-size="8" fill="#1565c0" text-anchor="middle">↔昌平线</text>
<circle cx="862.8" cy="150.0" r="8" fill="#fff" stroke="#1565c0" stroke-width="3"/>
<circle cx="862.8" cy="150.0" r="3.5" fill="#1565c0"/>
<text x="862.8" y="152.6" class="seq" text-anchor="middle">11</text>
<text x="862.8" y="132.0" class="nm" text-anchor="middle">牡丹园</text>
<text x="862.8" y="142.0" class="code" text-anchor="middle">MDY</text>
<text x="862.8" y="152.0" font-size="8" fill="#1565c0" text-anchor="middle">↔19号线</text>
<circle cx="281.1" cy="150.0" r="6" fill="#fff" stroke="#1565c0" stroke-width="2.5"/>
<circle cx="281.1" cy="150.0" r="2.5" fill="#1565c0"/>
<text x="281.1" y="152.6" class="seq" text-anchor="middle">12</text>
<text x="281.1" y="132.0" class="nm" text-anchor="middle">健德门</text>
<text x="281.1" y="142.0" class="code" text-anchor="middle">JDM</text>
<circle cx="337.8" cy="161.6" r="8" fill="#fff" stroke="#1565c0" stroke-width="3"/>
<circle cx="337.8" cy="161.6" r="3.5" fill="#1565c0"/>
<text x="337.8" y="164.2" class="seq" text-anchor="middle">13</text>
<text x="325.8" y="153.6" class="nm" text-anchor="end">北土城</text>
<text x="325.8" y="163.6" class="code" text-anchor="end">BTC</text>
<text x="325.8" y="173.6" font-size="8" fill="#1565c0" text-anchor="end">↔8号线</text>
<circle cx="385.9" cy="193.8" r="6" fill="#fff" stroke="#1565c0" stroke-width="2.5"/>
<circle cx="385.9" cy="193.8" r="2.5" fill="#1565c0"/>
<text x="385.9" y="196.4" class="seq" text-anchor="middle">14</text>
<text x="373.9" y="185.8" class="nm" text-anchor="end">安贞门</text>
<text x="373.9" y="195.8" class="code" text-anchor="end">AZM</text>
<circle cx="418.3" cy="241.8" r="8" fill="#fff" stroke="#1565c0" stroke-width="3"/>
<circle cx="418.3" cy="241.8" r="3.5" fill="#1565c0"/>
<text x="418.3" y="244.4" class="seq" text-anchor="middle">15</text>
<text x="406.3" y="233.8" class="nm" text-anchor="end">惠新西街南口</text>
<text x="406.3" y="243.8" class="code" text-anchor="end">HXXJNK</text>
<text x="406.3" y="253.8" font-size="8" fill="#1565c0" text-anchor="end">↔5号线</text>
<circle cx="430.0" cy="298.5" r="8" fill="#fff" stroke="#1565c0" stroke-width="3"/>
<circle cx="430.0" cy="298.5" r="3.5" fill="#1565c0"/>
<text x="430.0" y="301.1" class="seq" text-anchor="middle">16</text>
<text x="418.0" y="290.5" class="nm" text-anchor="end">芍药居</text>
<text x="418.0" y="300.5" class="code" text-anchor="end">SYJ</text>
<text x="418.0" y="310.5" font-size="8" fill="#1565c0" text-anchor="end">↔13号线</text>
<circle cx="1070.0" cy="356.8" r="8" fill="#fff" stroke="#1565c0" stroke-width="3"/>
<circle cx="1070.0" cy="356.8" r="3.5" fill="#1565c0"/>
<text x="1070.0" y="359.4" class="seq" text-anchor="middle">17</text>
<text x="1084.0" y="356.8" class="nm" text-anchor="start">太阳宫</text>
<text x="1084.0" y="366.8" class="code" text-anchor="start">TYG</text>
<text x="1084.0" y="376.8" font-size="8" fill="#1565c0" text-anchor="start">↔17号线</text>
<circle cx="1070.0" cy="415.1" r="9" fill="#fff" stroke="#1565c0" stroke-width="3"/>
<circle cx="1070.0" cy="415.1" r="13" fill="none" stroke="#ff9800" stroke-width="2.5"/>
<circle cx="1070.0" cy="415.1" r="4" fill="#ff9800"/>
<text x="1070.0" y="417.7" class="seq" text-anchor="middle">18</text>
<text x="1084.0" y="415.1" class="nm" text-anchor="start">三元桥</text>
<text x="1084.0" y="425.1" class="code" text-anchor="start">SYQ</text>
<text x="1084.0" y="435.1" font-size="8" fill="#1565c0" text-anchor="start">↔机场线</text>
<circle cx="1070.0" cy="473.4" r="6" fill="#fff" stroke="#1565c0" stroke-width="2.5"/>
<circle cx="1070.0" cy="473.4" r="2.5" fill="#1565c0"/>
<text x="1070.0" y="476.0" class="seq" text-anchor="middle">19</text>
<text x="1084.0" y="473.4" class="nm" text-anchor="start">亮马桥</text>
<text x="1084.0" y="483.4" class="code" text-anchor="start">LMQ</text>
<circle cx="1066.7" cy="531.4" r="6" fill="#fff" stroke="#1565c0" stroke-width="2.5"/>
<circle cx="1066.7" cy="531.4" r="2.5" fill="#1565c0"/>
<text x="1066.7" y="534.0" class="seq" text-anchor="middle">20</text>
<text x="1080.7" y="531.4" class="nm" text-anchor="start">农业展览馆</text>
<text x="1080.7" y="541.4" class="code" text-anchor="start">NYZLG</text>
<circle cx="1043.8" cy="584.6" r="6" fill="#fff" stroke="#1565c0" stroke-width="2.5"/>
<circle cx="1043.8" cy="584.6" r="2.5" fill="#1565c0"/>
<text x="1043.8" y="587.2" class="seq" text-anchor="middle">21</text>
<text x="1055.8" y="596.6" class="nm" text-anchor="start">团结湖</text>
<text x="1055.8" y="606.6" class="code" text-anchor="start">TJH</text>
<circle cx="1002.6" cy="625.2" r="8" fill="#fff" stroke="#1565c0" stroke-width="3"/>
<circle cx="1002.6" cy="625.2" r="3.5" fill="#1565c0"/>
<text x="1002.6" y="627.8" class="seq" text-anchor="middle">22</text>
<text x="1014.6" y="637.2" class="nm" text-anchor="start">呼家楼</text>
<text x="1014.6" y="647.2" class="code" text-anchor="start">HJL</text>
<text x="1014.6" y="657.2" font-size="8" fill="#1565c0" text-anchor="start">↔6号线</text>
<circle cx="949.0" cy="647.2" r="6" fill="#fff" stroke="#1565c0" stroke-width="2.5"/>
<circle cx="949.0" cy="647.2" r="2.5" fill="#1565c0"/>
<text x="949.0" y="649.8" class="seq" text-anchor="middle">23</text>
<text x="949.0" y="669.2" class="nm" text-anchor="middle">金台夕照</text>
<text x="949.0" y="679.2" class="code" text-anchor="middle">JTXZ</text>
<circle cx="890.9" cy="650.0" r="9" fill="#fff" stroke="#1565c0" stroke-width="3"/>
<circle cx="890.9" cy="650.0" r="13" fill="none" stroke="#ff9800" stroke-width="2.5"/>
<circle cx="890.9" cy="650.0" r="4" fill="#ff9800"/>
<text x="890.9" y="652.6" class="seq" text-anchor="middle">24</text>
<text x="890.9" y="672.0" class="nm" text-anchor="middle">国贸</text>
<text x="890.9" y="682.0" class="code" text-anchor="middle">GM</text>
<text x="890.9" y="692.0" font-size="8" fill="#1565c0" text-anchor="middle">↔1号线</text>
<circle cx="832.6" cy="650.0" r="8" fill="#fff" stroke="#1565c0" stroke-width="3"/>
<circle cx="832.6" cy="650.0" r="3.5" fill="#1565c0"/>
<text x="832.6" y="652.6" class="seq" text-anchor="middle">25</text>
<text x="832.6" y="672.0" class="nm" text-anchor="middle">双井</text>
<text x="832.6" y="682.0" class="code" text-anchor="middle">SJING</text>
<text x="832.6" y="692.0" font-size="8" fill="#1565c0" text-anchor="middle">↔7号线</text>
<circle cx="774.3" cy="650.0" r="6" fill="#fff" stroke="#1565c0" stroke-width="2.5"/>
<circle cx="774.3" cy="650.0" r="2.5" fill="#1565c0"/>
<text x="774.3" y="652.6" class="seq" text-anchor="middle">26</text>
<text x="774.3" y="672.0" class="nm" text-anchor="middle">劲松</text>
<text x="774.3" y="682.0" class="code" text-anchor="middle">JS</text>
<circle cx="716.0" cy="650.0" r="6" fill="#fff" stroke="#1565c0" stroke-width="2.5"/>
<circle cx="716.0" cy="650.0" r="2.5" fill="#1565c0"/>
<text x="716.0" y="652.6" class="seq" text-anchor="middle">27</text>
<text x="716.0" y="672.0" class="nm" text-anchor="middle">潘家园</text>
<text x="716.0" y="682.0" class="code" text-anchor="middle">PJY</text>
<circle cx="657.8" cy="650.0" r="8" fill="#fff" stroke="#1565c0" stroke-width="3"/>
<circle cx="657.8" cy="650.0" r="3.5" fill="#1565c0"/>
<text x="657.8" y="652.6" class="seq" text-anchor="middle">28</text>
<text x="657.8" y="672.0" class="nm" text-anchor="middle">十里河</text>
<text x="657.8" y="682.0" class="code" text-anchor="middle">SLH</text>
<circle cx="599.5" cy="650.0" r="6" fill="#fff" stroke="#1565c0" stroke-width="2.5"/>
<circle cx="599.5" cy="650.0" r="2.5" fill="#1565c0"/>
<text x="599.5" y="652.6" class="seq" text-anchor="middle">29</text>
<text x="599.5" y="672.0" class="nm" text-anchor="middle">分钟寺</text>
<text x="599.5" y="682.0" class="code" text-anchor="middle">FZS</text>
<circle cx="541.2" cy="650.0" r="6" fill="#fff" stroke="#1565c0" stroke-width="2.5"/>
<circle cx="541.2" cy="650.0" r="2.5" fill="#1565c0"/>
<text x="541.2" y="652.6" class="seq" text-anchor="middle">30</text>
<text x="541.2" y="672.0" class="nm" text-anchor="middle">成寿寺</text>
<text x="541.2" y="682.0" class="code" text-anchor="middle">CSS</text>
<circle cx="482.9" cy="650.0" r="9" fill="#fff" stroke="#1565c0" stroke-width="3"/>
<circle cx="482.9" cy="650.0" r="13" fill="none" stroke="#ff9800" stroke-width="2.5"/>
<circle cx="482.9" cy="650.0" r="4" fill="#ff9800"/>
<text x="482.9" y="652.6" class="seq" text-anchor="middle">31</text>
<text x="482.9" y="672.0" class="nm" text-anchor="middle">宋家庄</text>
<text x="482.9" y="682.0" class="code" text-anchor="middle">SJZ</text>
<circle cx="424.6" cy="650.0" r="6" fill="#fff" stroke="#1565c0" stroke-width="2.5"/>
<circle cx="424.6" cy="650.0" r="2.5" fill="#1565c0"/>
<text x="424.6" y="652.6" class="seq" text-anchor="middle">32</text>
<text x="424.6" y="672.0" class="nm" text-anchor="middle">石榴庄</text>
<text x="424.6" y="682.0" class="code" text-anchor="middle">SLZ</text>
<circle cx="366.4" cy="650.0" r="8" fill="#fff" stroke="#1565c0" stroke-width="3"/>
<circle cx="366.4" cy="650.0" r="3.5" fill="#1565c0"/>
<text x="366.4" y="652.6" class="seq" text-anchor="middle">33</text>
<text x="366.4" y="672.0" class="nm" text-anchor="middle">大红门</text>
<text x="366.4" y="682.0" class="code" text-anchor="middle">DHM</text>
<text x="366.4" y="692.0" font-size="8" fill="#1565c0" text-anchor="middle">↔8号线</text>
<circle cx="308.1" cy="650.0" r="6" fill="#fff" stroke="#1565c0" stroke-width="2.5"/>
<circle cx="308.1" cy="650.0" r="2.5" fill="#1565c0"/>
<text x="308.1" y="652.6" class="seq" text-anchor="middle">34</text>
<text x="308.1" y="672.0" class="nm" text-anchor="middle">角门东</text>
<text x="308.1" y="682.0" class="code" text-anchor="middle">JMD</text>
<circle cx="133.0" cy="530.0" r="8" fill="#fff" stroke="#1565c0" stroke-width="3"/>
<circle cx="133.0" cy="530.0" r="3.5" fill="#1565c0"/>
<text x="133.0" y="532.6" class="seq" text-anchor="middle">35</text>
<text x="119.0" y="530.0" class="nm" text-anchor="end">角门西</text>
<text x="119.0" y="540.0" class="code" text-anchor="end">JMX</text>
<text x="119.0" y="550.0" font-size="8" fill="#1565c0" text-anchor="end">↔4号线</text>
<circle cx="155.3" cy="583.4" r="8" fill="#fff" stroke="#1565c0" stroke-width="3"/>
<circle cx="155.3" cy="583.4" r="3.5" fill="#1565c0"/>
<text x="155.3" y="586.0" class="seq" text-anchor="middle">36</text>
<text x="143.3" y="595.4" class="nm" text-anchor="end">草桥</text>
<text x="143.3" y="605.4" class="code" text-anchor="end">CQ</text>
<circle cx="196.2" cy="624.4" r="6" fill="#fff" stroke="#1565c0" stroke-width="2.5"/>
<circle cx="196.2" cy="624.4" r="2.5" fill="#1565c0"/>
<text x="196.2" y="627.0" class="seq" text-anchor="middle">37</text>
<text x="184.2" y="636.4" class="nm" text-anchor="end">纪家庙</text>
<text x="184.2" y="646.4" class="code" text-anchor="end">JJM</text>
<circle cx="249.6" cy="646.9" r="9" fill="#fff" stroke="#1565c0" stroke-width="3"/>
<circle cx="249.6" cy="646.9" r="13" fill="none" stroke="#ff9800" stroke-width="2.5"/>
<circle cx="249.6" cy="646.9" r="4" fill="#ff9800"/>
<text x="249.6" y="649.5" class="seq" text-anchor="middle">38</text>
<text x="249.6" y="668.9" class="nm" text-anchor="middle">首经贸</text>
<text x="249.6" y="678.9" class="code" text-anchor="middle">SJM</text>
<text x="249.6" y="688.9" font-size="8" fill="#1565c0" text-anchor="middle">↔房山线</text>
<circle cx="130.0" cy="472.3" r="8" fill="#fff" stroke="#1565c0" stroke-width="3"/>
<circle cx="130.0" cy="472.3" r="3.5" fill="#1565c0"/>
<text x="130.0" y="474.9" class="seq" text-anchor="middle">39</text>
<text x="116.0" y="472.3" class="nm" text-anchor="end">丰台站</text>
<text x="116.0" y="482.3" class="code" text-anchor="end">FTZ</text>
<text x="116.0" y="492.3" font-size="8" fill="#1565c0" text-anchor="end">↔16号线</text>
<circle cx="130.0" cy="414.0" r="6" fill="#fff" stroke="#1565c0" stroke-width="2.5"/>
<circle cx="130.0" cy="414.0" r="2.5" fill="#1565c0"/>
<text x="130.0" y="416.6" class="seq" text-anchor="middle">40</text>
<text x="116.0" y="414.0" class="nm" text-anchor="end">泥洼</text>
<text x="116.0" y="424.0" class="code" text-anchor="end">NW</text>
<circle cx="130.0" cy="355.8" r="8" fill="#fff" stroke="#1565c0" stroke-width="3"/>
<circle cx="130.0" cy="355.8" r="3.5" fill="#1565c0"/>
<text x="130.0" y="358.4" class="seq" text-anchor="middle">41</text>
<text x="116.0" y="355.8" class="nm" text-anchor="end">西局</text>
<text x="116.0" y="365.8" class="code" text-anchor="end">XJ</text>
<text x="116.0" y="375.8" font-size="8" fill="#1565c0" text-anchor="end">↔14号线</text>
<circle cx="277.5" cy="150.0" r="8" fill="#fff" stroke="#1565c0" stroke-width="3"/>
<circle cx="277.5" cy="150.0" r="3.5" fill="#1565c0"/>
<text x="277.5" y="152.6" class="seq" text-anchor="middle">42</text>
<text x="277.5" y="132.0" class="nm" text-anchor="middle">六里桥</text>
<text x="277.5" y="142.0" class="code" text-anchor="middle">LLQ</text>
<text x="277.5" y="152.0" font-size="8" fill="#1565c0" text-anchor="middle">↔9号线</text>
<circle cx="220.9" cy="162.1" r="6" fill="#fff" stroke="#1565c0" stroke-width="2.5"/>
<circle cx="220.9" cy="162.1" r="2.5" fill="#1565c0"/>
<text x="220.9" y="164.7" class="seq" text-anchor="middle">43</text>
<text x="208.9" y="154.1" class="nm" text-anchor="end">莲花桥</text>
<text x="208.9" y="164.1" class="code" text-anchor="end">LHQ</text>
<circle cx="173.1" cy="194.8" r="9" fill="#fff" stroke="#1565c0" stroke-width="3"/>
<circle cx="173.1" cy="194.8" r="13" fill="none" stroke="#ff9800" stroke-width="2.5"/>
<circle cx="173.1" cy="194.8" r="4" fill="#ff9800"/>
<text x="173.1" y="197.4" class="seq" text-anchor="middle">44</text>
<text x="161.1" y="186.8" class="nm" text-anchor="end">公主坟</text>
<text x="161.1" y="196.8" class="code" text-anchor="end">GZF</text>
<text x="161.1" y="206.8" font-size="8" fill="#1565c0" text-anchor="end">↔1号线</text>
<circle cx="141.2" cy="243.2" r="6" fill="#fff" stroke="#1565c0" stroke-width="2.5"/>
<circle cx="141.2" cy="243.2" r="2.5" fill="#1565c0"/>
<text x="141.2" y="245.8" class="seq" text-anchor="middle">45</text>
<text x="129.2" y="235.2" class="nm" text-anchor="end">西钓鱼台</text>
<text x="129.2" y="245.2" class="code" text-anchor="end">XDYT</text>
<rect x="28" y="674" width="720" height="78" rx="8" fill="#fff" stroke="#e6ebf2"/>
<text x="40" y="692" font-size="12" font-weight="bold" fill="#0f2540">图例</text>
<circle cx="48" cy="712" r="9" fill="#fff" stroke="#1565c0" stroke-width="3"/><circle cx="48" cy="712" r="13" fill="none" stroke="#ff9800" stroke-width="2.5"/>
<text x="66" y="716" font-size="11" fill="#3a4a62">出退勤点（巴沟/宋家庄/三元桥/国贸/首经贸/公主坟）</text>
<circle cx="340" cy="712" r="8" fill="#fff" stroke="#1565c0" stroke-width="3"/><circle cx="340" cy="712" r="3.5" fill="#1565c0"/>
<text x="356" y="716" font-size="11" fill="#3a4a62">换乘站</text>
<circle cx="432" cy="712" r="6" fill="#fff" stroke="#1565c0" stroke-width="2.5"/><circle cx="432" cy="712" r="2.5" fill="#1565c0"/>
<text x="446" y="716" font-size="11" fill="#3a4a62">普通站</text>
<line x1="510" y1="712" x2="550" y2="712" stroke="url(#ring)" stroke-width="8" stroke-linecap="round"/>
<text x="558" y="716" font-size="11" fill="#3a4a62">10号线（环线）</text>
<text x="40" y="738" font-size="9" fill="#94a3b8">示意图（非地理精确走向）· 依据北京地铁10号线公开站点信息绘制 · 用于路演演示 · 非官方线网图</text>
<g transform="translate(1080,90)"><circle r="26" fill="#fff" stroke="#e6ebf2"/><path d="M0,-16 L6,10 L0,4 L-6,10 Z" fill="#1565c0"/><text y="34" font-size="10" fill="#5a6a82" text-anchor="middle">N</text></g>
</svg>